<svg width="163" height="29" viewBox="0 0 163 29" fill="none" xmlns="http://www.w3.org/2000/svg">
<path d="M43.504 18.656C43.504 19.408 43.328 20.056 42.976 20.6C42.64 21.128 42.08 21.616 41.296 22.064C40.768 22.384 40.152 22.624 39.448 22.784C38.744 22.944 38.032 23.024 37.312 23.024C36.576 23.024 35.664 22.784 34.576 22.304C33.792 21.92 33.168 21.464 32.704 20.936C32.256 20.408 32.032 19.832 32.032 19.208C32.032 18.776 32.128 18.464 32.32 18.272C32.512 18.064 32.824 17.96 33.256 17.96C33.48 17.96 33.712 18.056 33.952 18.248C34.192 18.424 34.336 18.6 34.384 18.776C34.608 19.432 35 19.936 35.56 20.288C36.12 20.624 36.816 20.792 37.648 20.792C38.608 20.792 39.408 20.616 40.048 20.264C40.704 19.912 41.032 19.44 41.032 18.848C41.032 18.272 40.68 17.76 39.976 17.312C39.272 16.864 38.552 16.552 37.816 16.376C36.76 16.088 35.824 15.744 35.008 15.344C34.16 14.928 33.528 14.416 33.112 13.808C32.696 13.2 32.488 12.56 32.488 11.888C32.488 11.264 32.704 10.632 33.136 9.992C33.568 9.336 34.08 8.864 34.672 8.576C34.992 8.416 35.536 8.248 36.304 8.072C37.088 7.88 37.656 7.784 38.008 7.784C38.472 7.784 38.984 7.84 39.544 7.952C40.104 8.064 40.56 8.224 40.912 8.432C41.616 8.832 42.136 9.192 42.472 9.512C42.808 9.832 42.976 10.232 42.976 10.712C42.976 11 42.864 11.256 42.64 11.48C42.432 11.704 42.064 11.816 41.536 11.816C41.408 11.816 41.28 11.76 41.152 11.648C41.024 11.536 40.864 11.368 40.672 11.144C40.416 10.808 40.168 10.584 39.928 10.472C39.688 10.392 39.336 10.304 38.872 10.208C38.424 10.112 38.024 10.064 37.672 10.064C37.288 10.064 36.888 10.144 36.472 10.304C36.056 10.464 35.704 10.696 35.416 11C35.144 11.288 35.008 11.624 35.008 12.008C35.008 12.328 35.152 12.608 35.44 12.848C35.744 13.072 36.104 13.256 36.52 13.4C37 13.592 37.52 13.76 38.08 13.904C38.816 14.128 39.416 14.336 39.88 14.528C40.36 14.704 40.824 14.928 41.272 15.2C42.056 15.664 42.624 16.144 42.976 16.64C43.328 17.12 43.504 17.792 43.504 18.656ZM47.5966 23.096C47.2766 23.096 47.0046 23.04 46.7806 22.928C46.5566 22.816 46.4206 22.696 46.3726 22.568C46.1966 21.928 46.1086 21.088 46.1086 20.048C46.1086 18.128 46.1406 16.568 46.2046 15.368C46.2686 13.944 46.3006 12.576 46.3006 11.264C46.3006 10.88 46.2526 10.32 46.1566 9.584C46.1406 9.456 46.1166 9.224 46.0846 8.888C46.0526 8.552 46.0366 8.24 46.0366 7.952C46.0366 7.6 46.1566 7.32 46.3966 7.112C46.6526 6.904 46.9806 6.8 47.3806 6.8C47.7006 6.8 47.9566 6.904 48.1486 7.112C48.3566 7.304 48.4606 7.568 48.4606 7.904C48.4606 8.416 48.4766 9.136 48.5086 10.064C48.5406 10.928 48.5566 11.576 48.5566 12.008C48.5566 12.488 48.5406 13.128 48.5086 13.928C48.4766 14.408 48.4606 14.76 48.4606 14.984C48.4606 15.688 48.4686 16.272 48.4846 16.736C49.0766 16.144 49.8526 15.448 50.8126 14.648C51.7726 13.848 52.5166 13.288 53.0446 12.968C53.6046 12.632 53.9726 12.464 54.1486 12.464C54.4846 12.464 54.7726 12.536 55.0126 12.68C55.2526 12.824 55.3726 13.032 55.3726 13.304C55.3726 13.576 55.3326 13.792 55.2526 13.952C55.1726 14.112 55.0286 14.272 54.8206 14.432L51.7246 16.688C52.0766 16.864 52.3726 17.088 52.6126 17.36C52.8686 17.632 53.1246 17.968 53.3806 18.368C53.9246 19.264 54.3566 19.92 54.6766 20.336C55.0126 20.752 55.3166 20.96 55.5886 20.96L56.1886 20.936C56.3006 20.936 56.3966 21 56.4766 21.128C56.5726 21.256 56.6206 21.44 56.6206 21.68C56.6206 22.048 56.4366 22.344 56.0686 22.568C55.7166 22.792 55.3166 22.904 54.8686 22.904C54.2446 22.904 53.6926 22.664 53.2126 22.184C52.7326 21.688 52.2766 21.024 51.8446 20.192C51.2206 19.008 50.6046 18.304 49.9966 18.08L48.4606 19.328L48.5566 21.944C48.5566 22.36 48.4446 22.656 48.2206 22.832C48.0126 23.008 47.8046 23.096 47.5966 23.096ZM57.7441 17.912C57.7441 17.304 57.8561 16.696 58.0801 16.088C58.3041 15.464 58.6001 14.896 58.9681 14.384C59.3361 13.872 59.9201 13.456 60.7201 13.136C61.5201 12.8 62.2321 12.632 62.8561 12.632C63.4961 12.632 64.1441 12.72 64.8001 12.896C65.4721 13.072 65.9361 13.344 66.1921 13.712C66.7841 14.544 67.0801 15.36 67.0801 16.16C67.0801 16.592 66.9841 16.96 66.7921 17.264C66.6161 17.568 66.3601 17.896 66.0241 18.248C65.7521 18.536 65.3201 18.728 64.7281 18.824C64.1521 18.92 63.5761 18.968 63.0001 18.968C62.6321 18.968 62.1841 18.936 61.6561 18.872C61.1281 18.792 60.6161 18.696 60.1201 18.584C60.1521 18.904 60.2321 19.216 60.3601 19.52C60.4881 19.824 60.6401 20.056 60.8161 20.216C61.1361 20.52 61.4641 20.712 61.8001 20.792C62.1521 20.872 62.6001 20.912 63.1441 20.912C63.7201 20.912 64.2561 20.816 64.7521 20.624C65.1521 20.48 65.4801 20.408 65.7361 20.408C66.0401 20.408 66.2721 20.504 66.4321 20.696C66.5921 20.872 66.6721 21.104 66.6721 21.392C66.6721 21.792 66.4401 22.12 65.9761 22.376C65.5121 22.632 64.9761 22.824 64.3681 22.952C63.7761 23.064 63.2961 23.12 62.9281 23.12C62.1761 23.12 61.4481 22.984 60.7441 22.712C60.0401 22.44 59.4561 22.056 58.9921 21.56C58.6081 21.112 58.3041 20.576 58.0801 19.952C57.8561 19.312 57.7441 18.632 57.7441 17.912ZM62.9761 14.672C62.6241 14.672 62.2721 14.744 61.9201 14.888C61.5681 15.016 61.2801 15.2 61.0561 15.44C60.7681 15.744 60.5681 15.992 60.4561 16.184C60.3601 16.36 60.2961 16.608 60.2641 16.928C60.6641 17.056 61.4961 17.12 62.7601 17.12C63.4481 17.12 63.9761 17.016 64.3441 16.808C64.7281 16.6 64.9201 16.328 64.9201 15.992C64.9201 15.656 64.7121 15.352 64.2961 15.08C63.8801 14.808 63.4401 14.672 62.9761 14.672ZM69.3736 14.648C69.1496 14.616 68.9656 14.528 68.8216 14.384C68.6936 14.224 68.6296 14.032 68.6296 13.808C68.6296 13.52 68.7416 13.28 68.9656 13.088C69.0136 13.04 69.0936 13 69.2056 12.968C69.3176 12.92 69.4056 12.88 69.4696 12.848C69.8216 12.736 70.0456 12.648 70.1416 12.584C70.5096 12.36 70.7576 11.992 70.8856 11.48C71.0136 10.872 71.0936 10.456 71.1256 10.232C71.1576 9.88 71.2696 9.616 71.4616 9.44C71.6696 9.248 71.9256 9.152 72.2296 9.152C72.6296 9.152 72.9096 9.256 73.0696 9.464C73.2296 9.672 73.3096 10.056 73.3096 10.616C73.3096 11.352 73.1336 12.048 72.7816 12.704C73.0056 12.704 73.3736 12.688 73.8856 12.656C74.6536 12.624 75.1896 12.608 75.4936 12.608C75.7656 12.608 75.9976 12.68 76.1896 12.824C76.3976 12.952 76.5016 13.144 76.5016 13.4C76.5016 14.008 76.2216 14.368 75.6616 14.48C75.1496 14.624 74.2216 14.712 72.8776 14.744C72.7656 16.312 72.7096 17.552 72.7096 18.464C72.7096 19.024 72.7336 19.424 72.7816 19.664C72.8776 20.16 73.0376 20.528 73.2616 20.768C73.5016 20.992 73.8536 21.104 74.3176 21.104C74.5416 21.104 74.8776 21.048 75.3256 20.936C75.5976 20.856 75.8136 20.816 75.9736 20.816C76.1816 20.816 76.3416 20.888 76.4536 21.032C76.5656 21.176 76.6216 21.368 76.6216 21.608C76.6216 22.04 76.3416 22.4 75.7816 22.688C75.2216 22.96 74.5576 23.096 73.7896 23.096C73.3096 23.096 72.8376 22.984 72.3736 22.76C71.9096 22.52 71.5176 22.232 71.1976 21.896C71.1336 21.864 71.0376 21.688 70.9096 21.368C70.7976 21.048 70.6856 20.696 70.5736 20.312C70.5256 20.12 70.5016 19.656 70.5016 18.92C70.5016 18.216 70.5496 17 70.6456 15.272L70.6696 14.744C70.5576 14.744 70.3496 14.736 70.0456 14.72C69.7416 14.688 69.5176 14.664 69.3736 14.648ZM86.9661 14.984C86.9661 15.32 86.8941 15.576 86.7501 15.752C86.6221 15.928 86.4061 16.016 86.1021 16.016C85.8781 16.016 85.6861 15.96 85.5261 15.848C85.3821 15.736 85.1901 15.544 84.9501 15.272C84.7581 15.064 84.5341 14.896 84.2781 14.768C84.0381 14.64 83.8221 14.576 83.6301 14.576C82.6541 14.576 81.9501 14.784 81.5181 15.2C81.2461 15.488 81.0221 15.872 80.8461 16.352C80.6701 16.816 80.5821 17.296 80.5821 17.792C80.5821 18.512 80.6861 19.088 80.8941 19.52C81.1021 19.952 81.4701 20.32 81.9981 20.624C82.1901 20.736 82.4621 20.832 82.8141 20.912C83.1661 20.976 83.4541 21.008 83.6781 21.008C83.9821 21.008 84.3021 20.928 84.6381 20.768C84.9741 20.592 85.2621 20.368 85.5021 20.096C85.8061 19.744 86.1741 19.568 86.6061 19.568C86.7821 19.568 86.9821 19.656 87.2061 19.832C87.4461 20.008 87.5661 20.216 87.5661 20.456C87.5661 20.936 87.3341 21.384 86.8701 21.8C86.4221 22.2 85.8701 22.52 85.2141 22.76C84.5581 22.984 83.9501 23.096 83.3901 23.096C82.4461 23.096 81.5661 22.88 80.7501 22.448C79.9501 22.016 79.3101 21.424 78.8301 20.672C78.3501 19.904 78.1101 19.04 78.1101 18.08C78.1101 17.248 78.2621 16.44 78.5661 15.656C78.8861 14.872 79.3101 14.232 79.8381 13.736C80.2701 13.336 80.8061 13.04 81.4461 12.848C82.0861 12.656 82.7581 12.56 83.4621 12.56C83.9581 12.56 84.4701 12.656 84.9981 12.848C85.5261 13.04 85.9501 13.296 86.2701 13.616C86.7341 14.08 86.9661 14.536 86.9661 14.984ZM92.5041 7.784C92.5041 8.2 92.4961 8.688 92.4801 9.248C92.4641 9.792 92.4481 10.208 92.4321 10.496C92.3841 11.312 92.3601 12.128 92.3601 12.944C92.3601 13.552 92.3841 14.184 92.4321 14.84C92.9281 14.12 93.4641 13.592 94.0401 13.256C94.6161 12.92 95.3121 12.752 96.1281 12.752C96.7201 12.752 97.2721 13.016 97.7841 13.544C98.2961 14.072 98.6241 14.688 98.7681 15.392C98.8161 16.016 98.8401 16.776 98.8401 17.672C98.8401 18.248 98.8721 19 98.9361 19.928C98.9681 20.28 99.0561 20.608 99.2001 20.912C99.3601 21.216 99.5841 21.368 99.8721 21.368C100.016 21.368 100.128 21.36 100.208 21.344C100.304 21.328 100.392 21.32 100.472 21.32C100.696 21.32 100.848 21.376 100.928 21.488C101.024 21.6 101.072 21.76 101.072 21.968C101.072 22.352 100.88 22.64 100.496 22.832C100.112 23.024 99.7601 23.12 99.4401 23.12C98.2881 23.12 97.4961 22.64 97.0641 21.68C96.8241 21.136 96.6721 20.432 96.6081 19.568C96.5441 18.688 96.5121 17.664 96.5121 16.496C96.5121 15.344 96.1201 14.768 95.3361 14.768C94.9041 14.768 94.4641 15 94.0161 15.464C93.5841 15.912 93.2241 16.512 92.9361 17.264C92.6481 18 92.5041 18.768 92.5041 19.568L92.5281 22.064C92.5281 22.416 92.3921 22.68 92.1201 22.856C91.8481 23.016 91.5921 23.096 91.3521 23.096C91.0001 23.096 90.6801 22.992 90.3921 22.784C90.1041 22.56 89.9601 22.312 89.9601 22.04C90.0721 20.84 90.1281 18.832 90.1281 16.016C90.1281 15.504 90.0881 13.608 90.0081 10.328L89.9361 8.12C89.9361 7.768 90.0961 7.464 90.4161 7.208C90.7361 6.936 91.0961 6.8 91.4961 6.8C91.8481 6.8 92.1041 6.88 92.2641 7.04C92.4241 7.2 92.5041 7.448 92.5041 7.784ZM115.45 18.152C115.45 19.048 115.106 19.904 114.418 20.72C113.746 21.52 112.89 22.152 111.85 22.616C111.402 22.76 110.834 22.88 110.146 22.976C109.458 23.056 108.762 23.104 108.058 23.12C106.682 23.12 105.402 22.928 104.218 22.544C104.01 22.496 103.77 22.36 103.498 22.136C103.226 21.912 103.098 21.616 103.114 21.248V20.432C103.114 19.536 103.09 18.672 103.042 17.84C103.01 16.752 102.994 15.92 102.994 15.344L102.97 12.632C102.97 11.672 103.002 10.704 103.066 9.728C103.082 9.232 103.266 8.816 103.618 8.48C103.986 8.128 104.442 7.912 104.986 7.832C105.194 7.816 105.57 7.808 106.114 7.808L108.418 7.832C109.522 7.832 110.506 7.976 111.37 8.264C112.234 8.552 112.978 9.016 113.602 9.656C113.81 9.896 113.978 10.216 114.106 10.616C114.234 11 114.298 11.376 114.298 11.744C114.25 13.04 113.506 14.096 112.066 14.912C113.218 15.056 114.066 15.416 114.61 15.992C115.17 16.568 115.45 17.288 115.45 18.152ZM106.378 14.336C106.538 14.32 106.794 14.312 107.146 14.312H108.226C108.706 14.312 109.042 14.296 109.234 14.264C110.866 13.896 111.682 13.248 111.682 12.32C111.682 12.08 111.642 11.824 111.562 11.552C111.498 11.28 111.41 11.088 111.298 10.976C110.882 10.576 110.49 10.32 110.122 10.208C109.754 10.08 109.21 10.016 108.49 10.016C107.098 10.016 106.098 10.088 105.49 10.232L105.514 14.36L106.378 14.336ZM107.482 21.104C109.146 21.104 110.45 20.896 111.394 20.48C112.354 20.064 112.834 19.248 112.834 18.032C112.834 17.552 112.482 17.16 111.778 16.856C111.074 16.536 110.306 16.376 109.474 16.376C108.45 16.376 107.73 16.4 107.314 16.448C106.962 16.48 106.722 16.496 106.594 16.496C106.354 16.496 106.186 16.488 106.09 16.472C106.01 16.472 105.914 16.472 105.802 16.472C105.706 16.456 105.602 16.456 105.49 16.472L105.514 17.264C105.53 17.456 105.554 17.984 105.586 18.848C105.634 19.696 105.642 20.296 105.61 20.648C105.978 20.808 106.298 20.928 106.57 21.008C106.842 21.072 107.146 21.104 107.482 21.104ZM117.774 14.576C117.358 14.288 117.15 13.984 117.15 13.664C117.15 13.44 117.246 13.232 117.438 13.04C117.63 12.848 117.918 12.752 118.302 12.752C118.75 12.752 119.15 12.872 119.502 13.112C119.87 13.336 120.126 13.664 120.27 14.096C120.638 13.664 121.054 13.32 121.518 13.064C121.998 12.808 122.486 12.68 122.982 12.68C123.574 12.68 124.11 12.84 124.59 13.16C125.07 13.48 125.31 13.912 125.31 14.456C125.31 14.76 125.174 15.072 124.902 15.392C124.646 15.712 124.382 15.872 124.11 15.872C123.966 15.872 123.838 15.84 123.726 15.776C123.63 15.696 123.51 15.584 123.366 15.44C123.206 15.28 123.07 15.168 122.958 15.104C122.846 15.024 122.718 14.984 122.574 14.984C122.318 14.984 122.078 15.024 121.854 15.104C121.63 15.184 121.478 15.28 121.398 15.392C121.142 15.792 120.95 16.152 120.822 16.472C120.71 16.792 120.654 17.136 120.654 17.504C120.654 17.776 120.646 17.992 120.63 18.152L120.606 19.52C120.606 19.728 120.614 19.96 120.63 20.216C120.646 20.472 120.662 20.664 120.678 20.792C120.726 21.224 120.75 21.64 120.75 22.04C120.75 22.312 120.646 22.552 120.438 22.76C120.23 22.968 119.974 23.072 119.67 23.072C119.19 23.072 118.838 22.984 118.614 22.808C118.39 22.616 118.278 22.272 118.278 21.776L118.254 20.24C118.238 19.936 118.23 19.504 118.23 18.944L118.254 17.36C118.286 16.592 118.302 15.968 118.302 15.488C118.302 15.312 118.262 15.152 118.182 15.008C118.118 14.864 117.982 14.72 117.774 14.576ZM127.757 12.584C128.813 12.584 129.341 13.28 129.341 14.672C129.341 14.848 129.325 15.24 129.293 15.848C129.261 16.552 129.245 17.104 129.245 17.504C129.245 18.624 129.397 19.528 129.701 20.216C129.813 20.44 130.013 20.616 130.301 20.744C130.605 20.872 130.861 20.936 131.069 20.936C131.389 20.936 131.653 20.896 131.861 20.816C132.069 20.736 132.261 20.616 132.437 20.456C132.629 20.296 132.813 20.12 132.989 19.928C133.293 19.592 133.485 19.208 133.565 18.776C133.661 18.328 133.717 17.736 133.733 17C133.733 16.536 133.757 16.088 133.805 15.656C133.901 14.952 133.949 14.296 133.949 13.688C133.949 13.352 134.037 13.072 134.213 12.848C134.405 12.608 134.677 12.488 135.029 12.488C135.205 12.488 135.413 12.552 135.653 12.68C135.909 12.792 136.077 12.92 136.157 13.064C136.269 13.256 136.325 13.52 136.325 13.856C136.325 14.064 136.301 14.256 136.253 14.432C136.173 14.672 136.133 14.976 136.133 15.344C136.133 15.536 136.149 15.856 136.181 16.304C136.229 16.64 136.253 16.984 136.253 17.336C136.253 18.408 136.333 19.2 136.493 19.712C136.669 20.256 136.909 20.736 137.213 21.152C137.533 21.488 137.749 21.736 137.861 21.896C137.973 22.04 138.029 22.168 138.029 22.28C138.029 22.472 137.933 22.656 137.741 22.832C137.549 23.008 137.349 23.096 137.141 23.096C136.549 23.096 136.029 22.896 135.581 22.496C135.149 22.08 134.829 21.552 134.621 20.912C134.445 21.12 134.213 21.376 133.925 21.68C133.637 21.984 133.365 22.232 133.109 22.424C132.485 22.872 131.685 23.096 130.709 23.096C130.309 23.096 129.869 22.976 129.389 22.736C128.925 22.496 128.501 22.184 128.117 21.8C127.733 21.4 127.469 20.976 127.325 20.528C127.309 20.496 127.261 20.368 127.181 20.144C127.117 19.92 127.085 19.584 127.085 19.136L127.061 15.296C127.061 15.072 127.005 14.72 126.893 14.24C126.797 13.92 126.749 13.68 126.749 13.52C126.749 13.248 126.837 13.024 127.013 12.848C127.205 12.672 127.453 12.584 127.757 12.584ZM146.643 17.504C147.283 17.872 147.731 18.24 147.987 18.608C148.243 18.96 148.371 19.424 148.371 20C148.371 20.576 148.203 21.088 147.867 21.536C147.531 21.968 147.099 22.304 146.571 22.544C146.187 22.72 145.707 22.856 145.131 22.952C144.571 23.048 144.131 23.096 143.811 23.096C143.251 23.096 142.643 22.992 141.987 22.784C141.331 22.576 140.771 22.28 140.307 21.896C139.859 21.512 139.635 21.064 139.635 20.552C139.635 20.232 139.739 19.984 139.947 19.808C140.155 19.616 140.427 19.52 140.763 19.52C141.035 19.52 141.323 19.712 141.627 20.096C141.931 20.432 142.283 20.688 142.683 20.864C143.099 21.04 143.507 21.128 143.907 21.128C145.427 21.128 146.187 20.784 146.187 20.096C146.187 19.952 146.139 19.816 146.043 19.688C145.947 19.544 145.859 19.448 145.779 19.4C145.635 19.288 145.435 19.192 145.179 19.112C144.923 19.032 144.667 18.968 144.411 18.92C144.155 18.856 143.963 18.808 143.835 18.776C143.707 18.744 143.435 18.688 143.019 18.608C142.619 18.528 142.235 18.392 141.867 18.2C141.259 17.912 140.763 17.56 140.379 17.144C140.011 16.728 139.827 16.192 139.827 15.536C139.827 15.168 139.915 14.8 140.091 14.432C140.283 14.048 140.539 13.76 140.859 13.568C141.339 13.264 141.867 13.032 142.443 12.872C143.019 12.712 143.555 12.632 144.051 12.632C144.451 12.632 144.899 12.672 145.395 12.752C145.907 12.832 146.275 12.944 146.499 13.088C146.915 13.312 147.219 13.544 147.411 13.784C147.603 14.024 147.699 14.328 147.699 14.696C147.699 14.872 147.659 15.048 147.579 15.224C147.499 15.384 147.403 15.496 147.291 15.56C147.035 15.656 146.811 15.704 146.619 15.704C146.475 15.704 146.355 15.68 146.259 15.632C146.163 15.568 146.075 15.504 145.995 15.44C145.931 15.376 145.891 15.336 145.875 15.32C145.667 15.096 145.435 14.92 145.179 14.792C144.923 14.664 144.547 14.6 144.051 14.6C143.731 14.6 143.419 14.648 143.115 14.744C142.827 14.824 142.603 14.928 142.443 15.056C142.315 15.152 142.227 15.24 142.179 15.32C142.131 15.384 142.107 15.472 142.107 15.584C142.107 16.032 142.555 16.36 143.451 16.568C144.363 16.776 144.843 16.888 144.891 16.904C144.987 16.936 145.251 17.016 145.683 17.144C146.131 17.272 146.451 17.392 146.643 17.504ZM153.535 7.784C153.535 8.2 153.527 8.688 153.511 9.248C153.495 9.792 153.479 10.208 153.463 10.496C153.415 11.312 153.391 12.128 153.391 12.944C153.391 13.552 153.415 14.184 153.463 14.84C153.959 14.12 154.495 13.592 155.071 13.256C155.647 12.92 156.343 12.752 157.159 12.752C157.751 12.752 158.303 13.016 158.815 13.544C159.327 14.072 159.655 14.688 159.799 15.392C159.847 16.016 159.871 16.776 159.871 17.672C159.871 18.248 159.903 19 159.967 19.928C159.999 20.28 160.087 20.608 160.231 20.912C160.391 21.216 160.615 21.368 160.903 21.368C161.047 21.368 161.159 21.36 161.239 21.344C161.335 21.328 161.423 21.32 161.503 21.32C161.727 21.32 161.879 21.376 161.959 21.488C162.055 21.6 162.103 21.76 162.103 21.968C162.103 22.352 161.911 22.64 161.527 22.832C161.143 23.024 160.791 23.12 160.471 23.12C159.319 23.12 158.527 22.64 158.095 21.68C157.855 21.136 157.703 20.432 157.639 19.568C157.575 18.688 157.543 17.664 157.543 16.496C157.543 15.344 157.151 14.768 156.367 14.768C155.935 14.768 155.495 15 155.047 15.464C154.615 15.912 154.255 16.512 153.967 17.264C153.679 18 153.535 18.768 153.535 19.568L153.559 22.064C153.559 22.416 153.423 22.68 153.151 22.856C152.879 23.016 152.623 23.096 152.383 23.096C152.031 23.096 151.711 22.992 151.423 22.784C151.135 22.56 150.991 22.312 150.991 22.04C151.103 20.84 151.159 18.832 151.159 16.016C151.159 15.504 151.119 13.608 151.039 10.328L150.967 8.12C150.967 7.768 151.127 7.464 151.447 7.208C151.767 6.936 152.127 6.8 152.527 6.8C152.879 6.8 153.135 6.88 153.295 7.04C153.455 7.2 153.535 7.448 153.535 7.784Z" fill="#4285F4"/>
<g clip-path="url(#clip0_586_2252)">
<path d="M8.71626 15.9718C8.7018 15.8479 8.76803 15.588 8.56467 15.3783C8.39652 15.2051 8.12413 15.1496 7.78924 15.2115C6.20363 15.4922 4.52287 17.3764 4.5196 17.3792C3.79431 18.1207 3.33465 18.9899 3.08791 19.9391C2.97666 20.3679 2.91329 20.8082 2.89901 21.2515C2.85423 22.7733 3.40508 24.2943 4.52263 25.4702C5.95596 26.9829 7.45551 27.428 8.10338 27.6455C12.1613 29 16.6863 27.5669 19.9307 24.2796C24.5015 19.6482 24.5672 12.1327 20.1143 7.41772C22.4471 9.88136 21.9851 14.2487 19.1691 17.1024C18.94 17.3342 17.6168 18.6327 15.7782 19.206C14.1592 19.7135 12.9306 19.5903 11.8747 19.2984C10.78 18.9973 9.83568 18.1703 9.49052 17.8148C9.14537 17.4593 8.80768 16.7469 8.71626 15.9718Z" fill="url(#paint0_linear_586_2252)"/>
<path d="M17.6467 6.09325C17.7922 6.42239 17.9172 6.76061 18.0208 7.10586C18.3518 8.20482 18.4873 9.35546 18.421 10.5033C18.1663 14.9373 16.1036 18.8698 12.2735 18.6402C10.0284 18.5055 9.12914 16.8873 8.69186 15.9566C8.6247 19.9732 12.684 21.998 15.0798 22.1419C21.8532 22.5479 22.9052 16.2115 22.9843 14.8361C23.0267 14.0972 22.8821 12.9655 22.7119 12.2781C22.7021 12.2354 22.6905 12.1931 22.6769 12.1516C21.9522 9.51847 20.3708 7.2163 18.1936 5.62459C17.8835 5.40038 17.4907 5.7411 17.6467 6.09325Z" fill="url(#paint1_linear_586_2252)"/>
<path d="M11.6779 2.07684C11.8968 1.69509 12.2521 1.41495 12.669 1.29534C13.0859 1.17572 13.532 1.22595 13.9134 1.43547C14.2949 1.64498 14.5819 1.99745 14.7142 2.41874C14.8464 2.84003 14.8136 3.29731 14.6227 3.6944L8.67575 16.0309L4.88489 13.9485L11.6779 2.07708V2.07684Z" fill="url(#paint2_linear_586_2252)"/>
<path d="M0.5648 21.0665C-3.98633e-05 18.9662 1.18468 16.7154 3.21083 16.0385C5.23674 15.3616 7.33705 16.515 7.90189 18.6153C8.4665 20.7153 7.28201 22.9662 5.25586 23.6433L2.07648 24.7055C2.0134 24.7273 1.9466 24.7357 1.88023 24.73C1.81387 24.7243 1.74935 24.7048 1.69069 24.6725C1.63204 24.6403 1.58049 24.5961 1.53926 24.5427C1.49802 24.4893 1.46799 24.4277 1.45101 24.3619L0.5648 21.0665Z" fill="url(#paint3_radial_586_2252)"/>
<path d="M3.87158 15.8851L7.66245 17.9675L8.68158 16.0309L4.89072 13.9485L3.87158 15.8851Z" fill="url(#paint4_linear_586_2252)"/>
<path d="M21.0104 4.6434C20.9497 4.59925 20.9002 4.54091 20.866 4.47325C20.8319 4.40559 20.8141 4.33057 20.8141 4.25444C20.8141 4.17831 20.8319 4.10329 20.866 4.03563C20.9002 3.96797 20.9497 3.90963 21.0104 3.86548L21.7543 3.32486C22.0417 3.1161 22.2928 2.85959 22.4971 2.56599L23.0263 1.80594C23.0695 1.74387 23.1266 1.69327 23.1928 1.65836C23.2591 1.62344 23.3326 1.60522 23.4071 1.60522C23.4816 1.60522 23.5551 1.62344 23.6214 1.65836C23.6876 1.69327 23.7447 1.74387 23.7879 1.80594L24.3169 2.56599C24.5212 2.85958 24.7723 3.1161 25.0596 3.32486L25.8036 3.86548C25.8643 3.9096 25.9139 3.96793 25.948 4.03559C25.9822 4.10326 26.0001 4.1783 26.0001 4.25444C26.0001 4.33058 25.9822 4.40562 25.948 4.47329C25.9139 4.54096 25.8643 4.59928 25.8036 4.6434L25.0596 5.18402C24.7723 5.39278 24.5212 5.64929 24.3169 5.94289L23.7879 6.70294C23.7447 6.76501 23.6876 6.81561 23.6214 6.85052C23.5551 6.88544 23.4816 6.90366 23.4071 6.90366C23.3326 6.90366 23.2591 6.88544 23.1928 6.85052C23.1266 6.81561 23.0695 6.76501 23.0263 6.70294L22.4971 5.94289C22.2929 5.6493 22.0419 5.39279 21.7546 5.18402L21.0104 4.6434Z" fill="url(#paint5_linear_586_2252)"/>
<path d="M14.7915 9.23929C14.339 8.91072 14.339 8.22429 14.7915 7.89573L16.0762 6.96245C16.5723 6.60206 17.0057 6.15927 17.3584 5.65248L18.2719 4.33966C18.5938 3.87767 19.2654 3.87767 19.5872 4.33966L20.5005 5.65248C20.8534 6.15931 21.287 6.6021 21.7832 6.96245L23.0677 7.89573C23.5201 8.22453 23.5201 8.91072 23.0677 9.23953L21.7829 10.1726C21.2868 10.533 20.8533 10.9759 20.5005 11.4828L19.587 12.7954C19.2654 13.2576 18.5935 13.2576 18.2719 12.7954L17.3584 11.4828C17.0057 10.9759 16.5723 10.533 16.0762 10.1726L14.7915 9.23929Z" fill="url(#paint6_linear_586_2252)"/>
</g>
<defs>
<linearGradient id="paint0_linear_586_2252" x1="8.71323" y1="28.1535" x2="26.2568" y2="16.1485" gradientUnits="userSpaceOnUse">
<stop stop-color="#C640F0"/>
<stop offset="1" stop-color="#F3CBFF"/>
</linearGradient>
<linearGradient id="paint1_linear_586_2252" x1="12.4074" y1="22.1605" x2="19.797" y2="10.1986" gradientUnits="userSpaceOnUse">
<stop offset="0.285" stop-color="#E9ACFA"/>
<stop offset="0.951" stop-color="#C640F0"/>
</linearGradient>
<linearGradient id="paint2_linear_586_2252" x1="8.46796" y1="7.32576" x2="12.2455" y2="9.47696" gradientUnits="userSpaceOnUse">
<stop stop-color="#E9ACFA"/>
<stop offset="0.872" stop-color="#8260F6"/>
</linearGradient>
<radialGradient id="paint3_radial_586_2252" cx="0" cy="0" r="1" gradientUnits="userSpaceOnUse" gradientTransform="translate(2.76796 17.8166) rotate(67.7643) scale(10.3757 8.95264)">
<stop stop-color="#E9ACFA"/>
<stop offset="0.659" stop-color="#4B35F1"/>
</radialGradient>
<linearGradient id="paint4_linear_586_2252" x1="4.10853" y1="13.5189" x2="8.72501" y2="15.9484" gradientUnits="userSpaceOnUse">
<stop stop-color="#AA6CF5"/>
<stop offset="1" stop-color="#4B35F1"/>
</linearGradient>
<linearGradient id="paint5_linear_586_2252" x1="20.814" y1="1.60532" x2="26.0512" y2="6.29288" gradientUnits="userSpaceOnUse">
<stop offset="0.191" stop-color="#C886F8"/>
<stop offset="0.774" stop-color="#4B35F1"/>
</linearGradient>
<linearGradient id="paint6_linear_586_2252" x1="14.4521" y1="3.99322" x2="23.4951" y2="12.087" gradientUnits="userSpaceOnUse">
<stop offset="0.217" stop-color="#C886F8"/>
<stop offset="0.769" stop-color="#4B35F1"/>
</linearGradient>
<clipPath id="clip0_586_2252">
<rect width="26" height="28" fill="white" transform="translate(0 1)"/>
</clipPath>
</defs>
</svg>
